<?xml version="1.0" standalone="no"?>
<!DOCTYPE svg PUBLIC "-//W3C//DTD SVG 20010904//EN"
 "http://www.w3.org/TR/2001/REC-SVG-20010904/DTD/svg10.dtd">
<svg version="1.0" xmlns="http://www.w3.org/2000/svg"
 width="260.000000pt" height="260.000000pt" viewBox="0 0 260.000000 260.000000"
 preserveAspectRatio="xMidYMid meet">
<metadata>
Created by potrace 1.11, written by Peter Selinger 2001-2013
</metadata>
<g transform="translate(0.000000,260.000000) scale(0.100000,-0.100000)"
fill="#000000" stroke="none">
<path d="M1230 2578 c-25 -4 -74 -13 -110 -21 -36 -8 -150 -34 -255 -57 -104
-23 -217 -48 -250 -55 -33 -8 -125 -28 -205 -45 -80 -18 -155 -38 -167 -46
-12 -8 -43 -14 -68 -14 -40 0 -47 -3 -57 -27 -6 -16 -11 -82 -12 -148 -1 -122
5 -150 43 -185 9 -8 63 -57 119 -109 93 -85 103 -97 100 -125 -3 -29 -7 -31
-48 -37 -25 -3 -60 -12 -78 -19 -18 -7 -51 -10 -72 -7 -44 6 -51 -4 -71 -102
-10 -49 -10 -76 1 -143 11 -71 23 -101 85 -213 39 -71 91 -166 115 -210 24
-44 79 -145 123 -225 44 -80 90 -163 102 -185 12 -22 43 -80 70 -130 26 -49
51 -94 55 -100 5 -5 31 -57 60 -114 60 -119 87 -151 127 -151 26 0 1310 225
1429 250 28 6 60 17 70 24 16 12 17 17 6 37 -8 13 -29 42 -49 64 l-35 40 4
-32 c3 -23 0 -34 -11 -38 -14 -6 -378 -69 -696 -121 -49 -8 -115 -19 -145 -24
-108 -18 -246 -41 -310 -51 -36 -5 -72 -12 -82 -15 -9 -2 -55 -8 -102 -12 -96
-9 -88 -15 -90 68 -1 52 16 95 48 115 26 17 128 39 406 85 69 11 150 25 180
30 264 48 310 54 438 52 111 -1 138 1 160 15 15 10 30 22 34 27 10 15 130 28
142 16 8 -8 15 4 26 37 13 40 20 48 48 55 17 5 32 15 32 23 0 8 -41 63 -90
122 -85 102 -89 108 -65 111 33 4 32 17 -14 142 -22 58 -54 144 -71 192 -18
48 -30 94 -27 101 3 8 16 17 29 20 13 3 64 16 113 30 50 14 126 35 170 47 91
25 95 26 95 45 0 13 -105 85 -123 85 -5 0 -6 -11 -3 -24 5 -19 1 -26 -22 -35
-24 -9 -375 -108 -627 -177 -49 -13 -133 -36 -185 -50 -52 -14 -117 -32 -145
-39 -27 -7 -86 -23 -129 -35 -43 -11 -97 -20 -120 -18 l-41 3 2 54 c2 73 28
137 62 154 15 8 59 22 97 31 38 10 78 22 89 26 11 5 31 11 45 14 64 13 129 32
136 39 4 4 20 7 35 7 15 0 30 4 33 9 4 5 29 12 56 16 27 4 52 11 56 16 3 5 16
9 30 9 13 0 32 4 42 9 9 5 44 16 77 25 33 9 76 21 95 26 19 5 102 28 184 50
81 23 162 40 179 38 27 -3 31 1 44 38 12 35 20 43 54 53 97 29 63 66 -193 207
-254 139 -284 156 -368 202 -36 19 -164 90 -285 157 -122 67 -234 124 -250
126 -17 3 -50 1 -75 -3z m849 -1700 c1 -35 4 -82 7 -105 l6 -43 -728 0 c-401
0 -745 3 -765 6 l-35 6 -1 69 c-1 38 3 69 9 69 5 0 7 4 3 10 -3 5 2 18 12 29
18 19 37 19 754 20 l736 1 2 -62z"/>
</g>
</svg>
